<svg height="533pt" viewBox="-17 -17 533.32999 533" width="533pt" xmlns="http://www.w3.org/2000/svg"><path d="m267.308594 420.160156c31.695312-29.113281 52.691406-72.691406 52.691406-100 0-1.621094 0-3.472656-.070312-5.417968 20.003906-18.355469 33.8125-42.46875 39.53125-69.003907 8.785156.996094 16.972656 4.945313 23.21875 11.199219 2.507812 2.601562 6.230468 3.644531 9.726562 2.730469 3.496094-.917969 6.226562-3.648438 7.144531-7.144531.910157-3.496094-.128906-7.210938-2.730469-9.726563-7.445312-7.285156-11.640624-17.257813-11.640624-27.675781 0-10.417969 4.195312-20.394532 11.640624-27.679688 2.601563-2.515625 3.640626-6.230468 2.730469-9.726562-.917969-3.496094-3.648437-6.222656-7.144531-7.140625-3.496094-.914063-7.21875.125-9.726562 2.726562-3.886719 3.886719-8.546876 6.925781-13.667969 8.921875.628906-3.988281.960937-8.023437.988281-12.058594 0-31.714843-5.367188-54.5625-32.550781-76.839843-1.90625-2.769531-6.648438-9.429688-13.558594-17.871094 10.78125-.320313 21.207031 3.859375 28.789063 11.527344 2.507812 2.601562 6.230468 3.640625 9.726562 2.730469 3.496094-.917969 6.226562-3.648438 7.144531-7.144532.910157-3.496094-.128906-7.210937-2.730469-9.722656-7.445312-7.289062-11.640624-17.265625-11.640624-27.679688 0-10.421874 4.195312-20.394531 11.640624-27.679687 2.601563-2.511719 3.640626-6.230469 2.730469-9.726563-.917969-3.496093-3.648437-6.226562-7.144531-7.144531-3.496094-.914062-7.21875.132813-9.726562 2.730469-7.285157 7.445312-17.261719 11.640625-27.679688 11.640625-10.414062 0-20.390625-4.195313-27.675781-11.640625-2.515625-2.597656-6.230469-3.644531-9.726563-2.730469-3.496094.917969-6.226562 3.648438-7.144531 7.144531-.914063 3.496094.128906 7.214844 2.730469 9.726563 7.230468 7.144531 11.386718 16.835937 11.578125 26.996094-24.648438-22.585938-57.691407-44.316407-93.949219-44.316407h-.910156c-63.710938.640626-82.878906 30.996094-87.996094 42.996094-9.628906 5.359375-18.753906 11.558594-27.28125 18.53125-3.859375-2.304687-8.792969-1.714844-12 1.441406-7.304688 7.460938-17.308594 11.667969-27.753906 11.667969-10.445313 0-20.449219-4.207031-27.753906-11.667969-3.914063-3.917968-10.269532-3.917968-14.183594 0-3.910156 3.914063-3.910156 10.261719 0 14.179688 7.464844 7.304688 11.667968 17.308594 11.667968 27.753906 0 10.441406-4.203124 20.449219-11.667968 27.753906-3.910156 3.914063-3.910156 10.265626 0 14.183594 3.914062 3.910156 10.269531 3.910156 14.183594 0 5.097656-5.09375 11.5-8.6875 18.496093-10.402344-3.925781 10.742188-5.828125 22.121094-5.609375 33.5625.457032 13.972657 3.511719 27.742188 9.003906 40.609376-5.8125 16.707031-18.363281 71.996093 43.066407 125.683593 8.605469 32.128907 26.160156 61.15625 50.617187 83.703125 1.878906 28.117188 0 53.246094-9.761718 62.996094-3.785157 3.925781-3.734376 10.160156.125 14.019531 3.855468 3.855469 10.097656 3.910157 14.015624.121094 12.363282-12.359375 16.28125-36 16.191407-61.402344 13.953125 9.011719 30.136719 13.945313 46.738281 14.265625 16.613281-.339844 32.796875-5.304687 46.742188-14.332031-.089844 25.410156 3.828124 48.996094 16.1875 61.398437 3.925781 3.789063 10.160156 3.738282 14.019531-.121093 3.855469-3.855469 3.910156-10.097657.121093-14.019531-9.707031-9.710938-11.640624-34.835938-9.761718-62.925782zm-166.601563-92.191406c4.4375-19.3125 27.367188-103.910156 92.804688-128.4375.476562-.222656.9375-.484375 1.371093-.78125l.648438.363281c56.308594 28.148438 99.410156 81.527344 104 106.859375.3125 5.164063.457031 10 .457031 14.1875 0 35.277344-47.308593 110-99.996093 110-49.058594 0-93.425782-64.789062-99.285157-102.191406zm-43.003906-110.257812c12.738281-5.800782 52.9375-26.441407 71.269531-63.082032 2.46875-4.941406.460938-10.949218-4.480468-13.417968-4.9375-2.46875-10.949219-.460938-13.414063 4.480468-13.242187 26.476563-41.726563 43.71875-56.09375 51.078125-2.878906-8.59375-4.558594-17.550781-4.980469-26.605469-.542968-11.335937 1.921875-22.605468 7.152344-32.671874 5.824219 1.914062 11.121094 5.160156 15.476562 9.476562 3.917969 3.917969 10.265626 3.917969 14.179688 0 3.917969-3.914062 3.917969-10.261719 0-14.179688-8.234375-8.152343-12.394531-19.566406-11.335938-31.109374 10.042969-15.183594 23.453126-27.84375 39.1875-37 8.792969 20.480468 23.589844 37.808593 42.425782 49.710937-5.117188 13.105469-5.90625 27.511719-2.253906 41.097656 3.621093 11.910157 10.703124 22.472657 20.347656 30.34375-57.148438 28.136719-81.996094 93.71875-90.851563 125.21875-40.925781-42.890625-30.746093-82.230469-26.648437-93.339843zm-24-123.890626c7.410156 1.460938 15.023437 1.460938 22.433594 0-1.460938 7.40625-1.460938 15.023438 0 22.429688-7.410157-1.453125-15.023438-1.453125-22.433594 0 1.445313-7.40625 1.4375-15.027344-.039063-22.429688zm302.515625-37.480468c-7.382812-1.449219-14.972656-1.449219-22.355469 0 1.449219-7.382813 1.449219-14.976563 0-22.359375 7.382813 1.453125 14.972657 1.453125 22.355469 0-1.457031 7.378906-1.472656 14.976562-.039062 22.359375zm-135.40625-36.175782c33.480469 0 65.109375 23.675782 87.648438 46.136719-1.53125 2.355469-3.300782 4.546875-5.277344 6.542969-2.601563 2.511719-3.644532 6.226562-2.730469 9.722656.917969 3.496094 3.648437 6.226563 7.144531 7.144532 3.496094.910156 7.210938-.128907 9.726563-2.730469 1.8125-1.796875 3.789062-3.417969 5.90625-4.847657 6.5625 7.519532 12.722656 15.382813 18.4375 23.558594.574219.863282 1.277343 1.632813 2.082031 2.277344 22.191406 17.75 26.25 34.875 26.25 62.195312-.058594 4.761719-.632812 9.507813-1.699219 14.15625-7.96875-1.410156-15.304687-5.253906-21-11-2.511719-2.601562-6.226562-3.640624-9.722656-2.726562-3.496094.917969-6.230469 3.644531-7.144531 7.140625-.914063 3.496094.128906 7.21875 2.730468 9.726563 7.441407 7.285156 11.640626 17.261718 11.640626 27.679687s-4.199219 20.390625-11.640626 27.675781c-3.792968 3.925782-3.734374 10.160156.121094 14.019532 3.851563 3.855468 10.09375 3.910156 14.015625.121093 3.085938-3.015625 6.644531-5.515625 10.53125-7.398437-4.476562 14.933594-12.03125 28.761718-22.167969 40.601562-14.261718-36.390625-61.589843-84.1875-111.191406-109.003906-14.042968-5.652344-25.0625-16.941406-30.378906-31.117188-2.472656-9.34375-1.914062-19.226562 1.582031-28.234374 22.996094 6.136718 92.164063 28.664062 115.132813 82.242187 1.378906 3.335937 4.441406 5.675781 8.019531 6.121094 3.578125.441406 7.117187-1.074219 9.265625-3.976563 2.144531-2.894531 2.566406-6.726562 1.09375-10.019531-29.914062-69.832031-121.734375-92.46875-135.5625-95.511719-20.136719-10.808594-35.503906-28.757812-43.082031-50.316406 3.226562-7 17.660156-29.710938 69.558593-30.234375zm165.367188 183.816407c-1.449219 7.382812-1.449219 14.976562 0 22.359375-7.382813-1.453125-14.976563-1.453125-22.359376 0 1.453126-7.382813 1.453126-14.976563 0-22.359375 7.382813 1.449219 14.976563 1.449219 22.359376 0zm0 0"/><path d="m469.996094 400.160156h-5.996094c9.097656-40.238281-25.292969-75.421875-26.941406-77.070312-3.214844-3.222656-8.199219-3.863282-12.128906-1.5625-3.925782 2.300781-5.804688 6.960937-4.570313 11.34375 1.917969 7.035156 1.097656 14.539062-2.300781 21-4.714844 4.785156-11.390625 7.109375-18.058594 6.289062-12.632812-.953125-24.957031 4.199219-33.160156 13.855469-5.519532 7.570313-8.3125 16.78125-7.929688 26.144531h-8.910156c-16.566406 0-30 13.425782-30 30v39.996094c0 16.570312 13.433594 30 30 30h119.996094c16.574218 0 30-13.429688 30-30v-39.996094c0-16.574218-13.425782-30-30-30zm-87.394532-13.832031c4.539063-4.625 10.957032-6.902344 17.398438-6.167969 12.972656 1.054688 25.652344-4.257812 34-14.242187 1.667969-2.207031 3.058594-4.605469 4.152344-7.148438 7.273437 12.519531 9.15625 27.453125 5.210937 41.390625h-64.464843c-.316407-4.894531.984374-9.757812 3.703124-13.832031zm97.394532 83.828125c0 5.523438-4.476563 10-10 10h-119.996094c-5.523438 0-10-4.476562-10-10v-39.996094c0-5.523437 4.476562-10 10-10h119.996094c5.523437 0 10 4.476563 10 10zm0 0"/><path d="m449.996094 440.160156h-79.996094c-5.523438 0-10 4.476563-10 10 0 5.519532 4.476562 10 10 10h79.996094c5.523437 0 10-4.480468 10-10 0-5.523437-4.476563-10-10-10zm0 0"/></svg>